<?xml version="1.0" encoding="iso-8859-1"?>
<!-- Generator: Adobe Illustrator 18.1.1, SVG Export Plug-In . SVG Version: 6.00 Build 0)  -->
<svg version="1.1" id="Capa_1" xmlns="http://www.w3.org/2000/svg" xmlns:xlink="http://www.w3.org/1999/xlink" x="0px" y="0px"
	 viewBox="0 0 32 32" style="enable-background:new 0 0 32 32;" xml:space="preserve">
<g>
	<path style="fill:#010002;" d="M28,14.518V1H4v18h10.522c-0.226,0.638-0.387,1.306-0.464,2H4l-4,8h17.349
		c1.545,1.248,3.51,1.999,5.651,2c2.142-0.001,4.104-0.752,5.649-2H32l-1.234-2.469C31.545,25.2,31.999,23.654,32,22
		C31.999,18.879,30.411,16.132,28,14.518z M6,17V3h20v10.523C25.061,13.19,24.054,13,23,13c-3.122,0-5.869,1.588-7.483,4H6z
		 M23,28.883c-3.801-0.009-6.876-3.084-6.885-6.883c0.009-3.801,3.084-6.876,6.885-6.885c3.799,0.009,6.874,3.084,6.883,6.885
		C29.874,25.799,26.799,28.874,23,28.883z M26.092,20.393l1.187-1.187l-1.416-1.415l-1.165,1.166
		c-0.22-0.123-0.452-0.221-0.697-0.294V17h-2v1.662c-0.229,0.068-0.446,0.158-0.652,0.27l-1.141-1.14l-1.415,1.415l1.14,1.14
		c-0.112,0.207-0.202,0.424-0.271,0.653H18v2h1.662c0.073,0.246,0.172,0.479,0.295,0.698l-1.165,1.163l1.413,1.416l1.188-1.187
		c0.192,0.101,0.394,0.182,0.605,0.245V27H24v-1.665c0.229-0.068,0.445-0.158,0.651-0.27l1.212,1.212l1.414-1.416l-1.212-1.21
		c0.111-0.206,0.201-0.423,0.27-0.651H28v-2.001h-1.663C26.274,20.787,26.192,20.586,26.092,20.393z M22.999,23.499
		c-0.829-0.002-1.498-0.671-1.501-1.5c0.003-0.829,0.672-1.498,1.501-1.501c0.829,0.003,1.498,0.672,1.5,1.501
		C24.497,22.828,23.828,23.497,22.999,23.499z"/>
</g>
<g>
</g>
<g>
</g>
<g>
</g>
<g>
</g>
<g>
</g>
<g>
</g>
<g>
</g>
<g>
</g>
<g>
</g>
<g>
</g>
<g>
</g>
<g>
</g>
<g>
</g>
<g>
</g>
<g>
</g>
</svg>
