<?xml version="1.0" encoding="iso-8859-1"?>
<!-- Generator: Adobe Illustrator 18.1.1, SVG Export Plug-In . SVG Version: 6.00 Build 0)  -->
<svg version="1.1" id="Capa_1" xmlns="http://www.w3.org/2000/svg" xmlns:xlink="http://www.w3.org/1999/xlink" x="0px" y="0px"
	 viewBox="0 0 32.585 32.585" style="enable-background:new 0 0 32.585 32.585;" xml:space="preserve">
<g>
	<g>
		<rect x="24.171" y="8.729" width="6.776" height="1.208"/>
		<rect x="24.171" y="10.724" width="6.776" height="1.209"/>
		<rect x="24.177" y="5.245" width="6.766" height="2.663"/>
		<rect x="24.171" y="12.722" width="6.776" height="1.207"/>
		<path d="M27.561,18.858c-1.389,0-2.512,1.124-2.512,2.513c0,1.386,1.123,2.51,2.512,2.51c1.384,0,2.51-1.124,2.51-2.51
			C30.071,19.982,28.945,18.858,27.561,18.858z M27.561,22.973c-0.888,0-1.606-0.719-1.606-1.604c0-0.886,0.72-1.604,1.606-1.604
			s1.604,0.719,1.604,1.604C29.165,22.254,28.451,22.973,27.561,22.973z"/>
		<path d="M22.538,3.557v25.471h10.047V3.557H22.538z M31.597,28.043h-8.073V4.544h8.073V28.043z"/>
		<path d="M0,24.723h8.531l-0.01,2.735H6.387v1.569h8.626v-1.569h-2.172v-2.735h8.557V8.668H0V24.723z M1.973,10.64h17.454v12.112
			H1.973V10.64z"/>
	</g>
</g>
<g>
</g>
<g>
</g>
<g>
</g>
<g>
</g>
<g>
</g>
<g>
</g>
<g>
</g>
<g>
</g>
<g>
</g>
<g>
</g>
<g>
</g>
<g>
</g>
<g>
</g>
<g>
</g>
<g>
</g>
</svg>
