<?xml version="1.0" encoding="iso-8859-1"?>
<!-- Generator: Adobe Illustrator 16.0.0, SVG Export Plug-In . SVG Version: 6.00 Build 0)  -->
<!DOCTYPE svg PUBLIC "-//W3C//DTD SVG 1.1//EN" "http://www.w3.org/Graphics/SVG/1.1/DTD/svg11.dtd">
<svg version="1.1" id="Capa_1" xmlns="http://www.w3.org/2000/svg" xmlns:xlink="http://www.w3.org/1999/xlink" x="0px" y="0px"
	 width="168.1px" height="168.1px" viewBox="0 0 168.1 168.1" style="enable-background:new 0 0 168.1 168.1;" xml:space="preserve"
	>
<g>
	<path d="M142.119,16.282C123.383,6.038,99.442,9.108,84.05,23.207C68.641,9.162,44.457,6.038,25.96,16.314
		C9.957,25.121,0,41.967,0,60.266c0,5.286,0.835,10.517,2.309,14.895c8.012,36.052,75.555,78.811,78.43,80.611l3.311,2.095
		l3.311-2.09c2.875-1.787,70.387-44.558,78.228-80.005c1.66-5.038,2.512-10.277,2.512-15.506
		C168.1,41.972,158.141,25.121,142.119,16.282z M153.601,72.487c-5.397,24.29-49.26,57.33-69.551,70.638
		c-20.307-13.308-64.187-46.342-69.75-71.243c-1.232-3.737-1.837-7.627-1.837-11.612c0-13.737,7.475-26.418,19.516-33.064
		c5.582-3.075,11.874-4.684,18.21-4.684c11.245,0,21.842,4.987,29.076,13.671l4.802,5.778l4.777-5.778
		c11.294-13.655,31.616-17.57,47.285-8.988c12.031,6.657,19.508,19.327,19.508,33.064C155.637,64.189,155.016,68.077,153.601,72.487
		z M149.426,60.266c0,3.223-0.517,6.473-1.55,9.639c-0.428,1.333-1.643,2.156-2.965,2.156c-0.317,0-0.636-0.021-0.965-0.145
		c-1.642-0.514-2.537-2.276-1.995-3.888c0.826-2.583,1.251-5.201,1.251-7.751c0-9.218-5.011-17.683-13.078-22.126
		c-3.801-2.131-7.924-3.196-12.241-3.196c-1.724,0-3.124-1.359-3.124-3.097c0-1.738,1.4-3.106,3.124-3.106
		c5.379,0,10.518,1.308,15.245,3.924C143.175,38.199,149.426,48.78,149.426,60.266z M98.305,68.481
		c0,4.825-2.583,8.875-6.266,11.459l4.958,25.8H71.074l4.134-26.383c-3.221-2.582-5.412-6.422-5.412-10.87
		c0-7.913,6.383-14.296,14.253-14.296C91.921,54.186,98.305,60.569,98.305,68.481z"/>
</g>
<g>
</g>
<g>
</g>
<g>
</g>
<g>
</g>
<g>
</g>
<g>
</g>
<g>
</g>
<g>
</g>
<g>
</g>
<g>
</g>
<g>
</g>
<g>
</g>
<g>
</g>
<g>
</g>
<g>
</g>
</svg>
