<?xml version="1.0" encoding="iso-8859-1"?>
<!-- Generator: Adobe Illustrator 18.0.0, SVG Export Plug-In . SVG Version: 6.00 Build 0)  -->
<!DOCTYPE svg PUBLIC "-//W3C//DTD SVG 1.1//EN" "http://www.w3.org/Graphics/SVG/1.1/DTD/svg11.dtd">
<svg version="1.1" id="Capa_1" xmlns="http://www.w3.org/2000/svg" xmlns:xlink="http://www.w3.org/1999/xlink" x="0px" y="0px"
	 viewBox="0 0 297 297" style="enable-background:new 0 0 297 297;" xml:space="preserve">
<g>
	<path d="M262.179,88.076h-50.183V64.521c0-19.201-15.62-34.821-34.821-34.821H118.8c-19.201,0-34.821,15.62-34.821,34.821v23.555
		H34.821C15.62,88.076,0,103.696,0,122.897v109.583C0,251.68,15.62,267.3,34.821,267.3h227.359c19.201,0,34.821-15.62,34.821-34.821
		V122.897C297,103.696,281.38,88.076,262.179,88.076z M110.607,64.521c0-4.442,3.752-8.193,8.193-8.193h58.376
		c4.442,0,8.193,3.752,8.193,8.193v23.555h-74.762V64.521z M270.372,232.479c0,4.518-3.675,8.193-8.193,8.193H34.821
		c-4.518,0-8.193-3.675-8.193-8.193V122.897c0-4.518,3.675-8.193,8.193-8.193h227.359c4.518,0,8.193,3.675,8.193,8.193V232.479z"/>
	<path d="M179.224,163.862h-17.41v-17.41c0-7.353-5.961-13.314-13.314-13.314s-13.314,5.961-13.314,13.314v17.41h-17.41
		c-7.353,0-13.314,5.961-13.314,13.314c0,7.353,5.961,13.314,13.314,13.314h17.41v17.41c0,7.353,5.961,13.314,13.314,13.314
		s13.314-5.961,13.314-13.314v-17.41h17.41c7.353,0,13.314-5.961,13.314-13.314C192.538,169.823,186.577,163.862,179.224,163.862z"
		/>
</g>
<g>
</g>
<g>
</g>
<g>
</g>
<g>
</g>
<g>
</g>
<g>
</g>
<g>
</g>
<g>
</g>
<g>
</g>
<g>
</g>
<g>
</g>
<g>
</g>
<g>
</g>
<g>
</g>
<g>
</g>
</svg>
