<?xml version="1.0" encoding="iso-8859-1"?>
<!-- Generator: Adobe Illustrator 18.0.0, SVG Export Plug-In . SVG Version: 6.00 Build 0)  -->
<!DOCTYPE svg PUBLIC "-//W3C//DTD SVG 1.1//EN" "http://www.w3.org/Graphics/SVG/1.1/DTD/svg11.dtd">
<svg version="1.1" id="Capa_1" xmlns="http://www.w3.org/2000/svg" xmlns:xlink="http://www.w3.org/1999/xlink" x="0px" y="0px"
	 viewBox="0 0 326.949 326.949" style="enable-background:new 0 0 326.949 326.949;" xml:space="preserve">
<g>
	<path d="M317.945,34.975H9.008C4.029,34.975,0,39.012,0,43.982v238.984c0,4.978,4.029,9.008,9.008,9.008h308.938
		c4.975,0,9.004-4.029,9.004-9.008V43.982C326.949,39.012,322.92,34.975,317.945,34.975z M156.975,44.682h13v6.443h-13V44.682z
		 M293.475,260.028h-260V66.921h260V260.028z"/>
	<path d="M118.475,158.951h33.91c1.13,0,2.045-0.915,2.045-2.045v-41.44c0-0.618-0.279-1.203-0.76-1.591
		c-0.481-0.389-1.113-0.538-1.715-0.409l-33.91,7.291c-0.942,0.203-1.615,1.036-1.615,2v34.149
		C116.43,158.036,117.345,158.951,118.475,158.951z"/>
	<path d="M165.092,215.426l42.953,9.229c0.143,0.03,0.286,0.045,0.43,0.045c0.463,0,0.918-0.157,1.285-0.454
		c0.48-0.388,0.76-0.973,0.76-1.591v-52.611c0-1.13-0.915-2.045-2.045-2.045h-42.953c-1.131,0-2.045,0.915-2.045,2.045v43.383
		C163.477,214.39,164.15,215.223,165.092,215.426z"/>
	<path d="M165.521,158.951h42.953c1.13,0,2.045-0.915,2.045-2.045v-52.611c0-0.618-0.279-1.203-0.76-1.591
		c-0.481-0.39-1.112-0.538-1.715-0.409l-42.953,9.229c-0.942,0.203-1.615,1.036-1.615,2v43.383
		C163.477,158.036,164.391,158.951,165.521,158.951z"/>
	<path d="M118.045,206.192l33.91,7.291c0.143,0.03,0.286,0.045,0.43,0.045c0.464,0,0.918-0.157,1.285-0.454
		c0.48-0.388,0.76-0.973,0.76-1.591v-41.44c0-1.13-0.915-2.045-2.045-2.045h-33.91c-1.13,0-2.045,0.915-2.045,2.045v34.149
		C116.43,205.156,117.103,205.989,118.045,206.192z"/>
</g>
<g>
</g>
<g>
</g>
<g>
</g>
<g>
</g>
<g>
</g>
<g>
</g>
<g>
</g>
<g>
</g>
<g>
</g>
<g>
</g>
<g>
</g>
<g>
</g>
<g>
</g>
<g>
</g>
<g>
</g>
</svg>
