<?xml version="1.0" encoding="iso-8859-1"?>
<!-- Generator: Adobe Illustrator 18.0.0, SVG Export Plug-In . SVG Version: 6.00 Build 0)  -->
<!DOCTYPE svg PUBLIC "-//W3C//DTD SVG 1.1//EN" "http://www.w3.org/Graphics/SVG/1.1/DTD/svg11.dtd">
<svg version="1.1" id="Capa_1" xmlns="http://www.w3.org/2000/svg" xmlns:xlink="http://www.w3.org/1999/xlink" x="0px" y="0px"
	 viewBox="0 0 310.571 310.571" style="enable-background:new 0 0 310.571 310.571;" xml:space="preserve">
<g>
	<path d="M141.588,13.698C63.516,13.698,0,77.213,0,155.286s63.516,141.588,141.588,141.588c5.523,0,10-4.478,10-10v-62.701V86.399
		V23.698C151.588,18.175,147.111,13.698,141.588,13.698z M95.539,230.06c11.391,2.114,23.471,3.455,36.048,3.923v41.052
		C117.197,269.704,104.42,253.137,95.539,230.06z M131.588,213.964c-15.155-0.631-29.621-2.68-42.819-5.86
		c-3.873-16.074-6.068-34.029-6.068-52.818s2.195-36.745,6.068-52.818c13.198-3.181,27.664-5.229,42.819-5.86V213.964z
		 M66.813,201.334C38.509,190.443,20,173.688,20,155.286s18.509-35.157,46.813-46.049c-2.67,14.38-4.112,29.856-4.112,46.049
		S64.144,186.954,66.813,201.334z M95.539,80.511c8.88-23.077,21.657-39.645,36.048-44.975v41.052
		C119.01,77.056,106.93,78.397,95.539,80.511z M92.112,44.232c-8.011,11.431-14.706,25.645-19.676,41.902
		c-16.258,4.97-30.472,11.665-41.903,19.676C42.757,78.479,64.781,56.457,92.112,44.232z M30.533,204.761
		c11.431,8.011,25.645,14.706,41.903,19.676c4.97,16.258,11.665,30.472,19.676,41.902C64.781,254.115,42.757,232.092,30.533,204.761
		z"/>
	<path d="M177.763,85.228c-4.707-2.89-10.863-1.416-13.754,3.291c-2.889,4.707-1.416,10.864,3.291,13.754
		c18.594,11.414,29.694,31.23,29.694,53.012c0.002,21.779-11.099,41.597-29.694,53.012c-4.707,2.89-6.18,9.047-3.291,13.754
		c1.888,3.075,5.171,4.77,8.532,4.77c1.784,0,3.59-0.477,5.222-1.479c24.568-15.081,39.233-41.27,39.231-70.058
		C216.994,126.496,202.328,100.308,177.763,85.228z"/>
	<path d="M211.837,52.445c-4.419-3.313-10.687-2.417-14,2.002c-3.313,4.419-2.417,10.687,2.002,14
		c27.623,20.711,43.466,52.362,43.466,86.837c0,34.476-15.843,66.128-43.466,86.841c-4.419,3.313-5.315,9.582-2.001,14
		c1.964,2.62,4.967,4.002,8.008,4.002c2.087,0,4.193-0.651,5.991-2c32.708-24.526,51.468-62.012,51.468-102.843
		C263.305,114.453,244.545,76.969,211.837,52.445z"/>
	<path d="M292.59,80.376c-11.375-22.242-27.98-41.94-48.019-56.966c-4.419-3.313-10.686-2.417-14,2.002
		c-3.313,4.419-2.417,10.686,2.002,14c36.858,27.635,57.997,69.868,57.998,115.871c-0.001,46.004-21.141,88.238-57.999,115.875
		c-4.418,3.314-5.315,9.581-2.001,14c1.964,2.62,4.967,4.002,8.008,4.002c2.087,0,4.193-0.651,5.991-2
		c20.04-15.026,36.645-34.726,48.02-56.969c11.931-23.329,17.98-48.531,17.981-74.908
		C310.571,128.907,304.521,103.704,292.59,80.376z"/>
</g>
<g>
</g>
<g>
</g>
<g>
</g>
<g>
</g>
<g>
</g>
<g>
</g>
<g>
</g>
<g>
</g>
<g>
</g>
<g>
</g>
<g>
</g>
<g>
</g>
<g>
</g>
<g>
</g>
<g>
</g>
</svg>
